<svg xmlns="http://www.w3.org/2000/svg" width="201.4" height="35.06"><path fill="#3c9ad5" d="M97.09 0H201.4v35.06H97.09z"/><path fill="#3bc4f3" d="M0 0h97.09v35.06H0z"/><path d="M114.5 21.52a4.26 4.26 0 01-2.3-3.9 4.42 4.42 0 01.6-2.31 4.36 4.36 0 011.7-1.6 4.75 4.75 0 012.4-.6 4.64 4.64 0 012.1.4 4.3 4.3 0 011.49 1.2l-1.49 1.4a2.33 2.33 0 00-2-1 2.13 2.13 0 00-1.2.3 2 2 0 00-.8.8 2.81 2.81 0 00-.3 1.31 2.77 2.77 0 00.3 1.3 2 2 0 00.8.8 2.66 2.66 0 001.2.3 2.46 2.46 0 002-1l1.49 1.4a4.3 4.3 0 01-1.49 1.2 4.64 4.64 0 01-2.1.4 4.69 4.69 0 01-2.4-.4zm11.39-6.21h-2.6v-1.9h7.49v1.9h-2.59v6.51h-2.4l.1-6.51zM138 19.62h-1.29v2.2h-2.4v-8.41h3.79a4.21 4.21 0 012 .4 2.85 2.85 0 011.3 1.1 3 3 0 01.5 1.6 3 3 0 01-.4 1.61 3.18 3.18 0 01-1.2 1.1l1.8 2.6h-2.5zm1.2-4a1.61 1.61 0 00-1.1-.3h-1.29v2.51h1.29a1.61 1.61 0 001.1-.3 1.27 1.27 0 00.4-.91 1.78 1.78 0 00-.43-1.01zm6.66-2.21h2.4v6.51h4v1.9h-6.4zm21.88 5.11h-2v2h-1.8v-2h-2v-1.8h2v-2h1.8v2h2zm18.78-5.11l-3.6 8.41h-2.3L177 13.41h2.6l2.29 5.51 2.3-5.51zM20.65 18.26a3.11 3.11 0 01-1 2.14 3.45 3.45 0 01-2.34.76 3.3 3.3 0 01-1.79-.48 3.12 3.12 0 01-1.2-1.38 5 5 0 01-.44-2.07v-.8a5 5 0 01.43-2.14 3.26 3.26 0 011.22-1.42 3.46 3.46 0 011.85-.5 3.33 3.33 0 012.28.77 3.24 3.24 0 011 2.17h-1.49a2.16 2.16 0 00-.53-1.31 1.79 1.79 0 00-1.27-.41 1.73 1.73 0 00-1.48.71 3.47 3.47 0 00-.53 2.08v.76a3.8 3.8 0 00.49 2.12 1.66 1.66 0 001.45.74 1.92 1.92 0 001.31-.4 2 2 0 00.56-1.31zm9.96-4.57H28v7.36h-1.52v-7.36h-2.64v-1.2h6.77zm6.89 4.07h-1.65v3.29h-1.48v-8.56h3a3.42 3.42 0 012.27.67 2.33 2.33 0 01.81 1.92 2.4 2.4 0 01-.45 1.44 2.61 2.61 0 01-1.15.89L40.8 21v.08h-1.59zm-1.65-1.2h1.52a1.7 1.7 0 001.17-.38 1.33 1.33 0 00.42-1 1.43 1.43 0 00-.38-1.06 1.68 1.68 0 00-1.17-.39h-1.56zM46 19.86h3.87v1.19h-5.38v-8.56H46zm16.41-3.52h2.22v1.3h-2.22v2.55H61v-2.55h-2.21v-1.3H61V14h1.39zm18.31 1.92a3.11 3.11 0 01-1 2.14 3.45 3.45 0 01-2.34.76 3.3 3.3 0 01-1.79-.48 3.12 3.12 0 01-1.2-1.38 5 5 0 01-.44-2.07v-.8a5 5 0 01.43-2.14 3.26 3.26 0 011.22-1.42 3.46 3.46 0 011.85-.5 3.33 3.33 0 012.28.77 3.24 3.24 0 011 2.17h-1.49a2.16 2.16 0 00-.53-1.31 1.79 1.79 0 00-1.27-.41 1.73 1.73 0 00-1.48.71 3.47 3.47 0 00-.53 2.08v.76a3.8 3.8 0 00.49 2.12 1.66 1.66 0 001.45.73 1.92 1.92 0 001.31-.4 2 2 0 00.56-1.31z" fill="#fff"/></svg>